<?xml version="1.0" encoding="utf-8"?>
<!-- Generator: Adobe Illustrator 27.0.1, SVG Export Plug-In . SVG Version: 6.00 Build 0)  -->
<svg version="1.1" id="Artwork" xmlns="http://www.w3.org/2000/svg" xmlns:xlink="http://www.w3.org/1999/xlink" x="0px" y="0px"
	 viewBox="0 0 784.81 464.76" style="enable-background:new 0 0 784.81 464.76;" xml:space="preserve">
<style type="text/css">
	.st0{fill:#00AB4E;}
</style>
<g>
	<g>
		<path class="st0" d="M493.3,370.02h-39.82v-28.45c-5.83,10.74-25.97,32.54-72.06,32.54c-55.72,0-79.75-36-79.75-68.51
			c0-48.91,37.4-68.64,92.56-68.64c19.8,0,50.33,0,57.94,0v-9.86c0-20.62-7.44-43.47-47.81-43.47c-31.39,0-48.53,14.32-51.56,33.21
			H311.5c2.1-31.18,30.79-67.7,91.9-67.7c64.5,0,89.91,31.53,89.91,81.08V370.02z M452.29,270.05c-6.51-0.09-31.95-0.09-52.75-0.09
			c-35.2,0-55.98,9.51-55.98,33.4c0,20.88,17.71,35.58,45.03,35.58c42.29,0,63.7-28.62,63.7-57.02V270.05z"/>
		<path class="st0" d="M282.28,370.02h-39.82v-28.45c-5.83,10.74-25.97,32.54-72.06,32.54c-55.72,0-79.75-36-79.75-68.51
			c0-48.91,37.4-68.64,92.56-68.64c19.8,0,50.33,0,57.94,0v-9.86c0-20.62-7.44-43.47-47.81-43.47c-31.39,0-48.53,14.32-51.56,33.21
			h-41.31c2.1-31.18,30.79-67.7,91.9-67.7c64.5,0,89.91,31.53,89.91,81.08V370.02z M241.26,270.05c-6.51-0.09-31.95-0.09-52.75-0.09
			c-35.2,0-55.98,9.51-55.98,33.4c0,20.88,17.71,35.58,45.03,35.58c42.29,0,63.7-28.62,63.7-57.02V270.05z"/>
		<rect x="598.91" y="153.24" class="st0" width="90.65" height="35.55"/>
		<rect x="598.91" y="208.33" class="st0" width="90.65" height="35.55"/>
		<path class="st0" d="M654.37,301.67l-0.16,0.66c-4.07,16.64-11.75,33.65-37.86,33.65c-24.89,0-37-13.78-37-42.11V90.65h-41.11
			v62.59h-37.81v35.55h37.81v103.45c0,49.74,30.66,81.88,78.1,81.88c40.47,0,68.77-22.42,77.66-61.52l0.15-0.64L654.37,301.67z"/>
	</g>
</g>
</svg>
